<?xml version="1.0" standalone="no"?>
<!DOCTYPE svg PUBLIC "-//W3C//DTD SVG 20010904//EN"
 "http://www.w3.org/TR/2001/REC-SVG-20010904/DTD/svg10.dtd">
<svg version="1.0" xmlns="http://www.w3.org/2000/svg"
 width="180.000000pt" height="180.000000pt" viewBox="0 0 180.000000 180.000000"
 preserveAspectRatio="xMidYMid meet">
<metadata>
Created by potrace 1.11, written by Peter Selinger 2001-2013
</metadata>
<g transform="translate(0.000000,180.000000) scale(0.100000,-0.100000)"
fill="#000000" stroke="none">
<path d="M75 1160 c-29 -11 -42 -30 -49 -70 -33 -192 -33 -200 3 -219 29 -16
65 26 66 75 1 35 20 61 23 32 5 -43 15 -78 23 -78 5 0 9 -6 9 -14 0 -17 18
-25 42 -18 18 4 35 39 44 87 3 16 7 32 10 34 9 9 22 -21 19 -41 -4 -21 15 -82
23 -74 3 3 10 1 17 -4 7 -6 19 -4 34 7 24 16 25 39 6 143 -2 14 -6 43 -9 65
-10 66 -68 101 -110 66 -7 -6 -19 -30 -26 -53 -16 -50 -29 -70 -31 -45 -3 39
-19 80 -38 97 -20 18 -30 20 -56 10z"/>
<path d="M396 1150 c-21 -14 -22 -22 -22 -133 1 -105 3 -120 20 -133 28 -20
149 -19 166 1 7 8 9 15 4 15 -5 0 -3 4 4 8 18 12 -22 46 -56 47 -40 1 -42 18
-2 21 19 2 40 10 46 19 15 21 6 55 -15 57 -9 0 -20 2 -26 3 -5 2 -18 3 -27 4
-35 2 -17 21 20 21 46 0 56 8 60 41 4 33 -14 41 -92 43 -37 1 -66 -4 -80 -14z"/>
<path d="M604 1145 c-18 -18 -20 -32 -19 -103 1 -45 -2 -85 -6 -88 -5 -3 -3
-15 3 -27 6 -12 14 -29 18 -37 5 -11 27 -16 74 -18 105 -5 168 34 183 112 2
11 5 22 7 24 8 7 -22 91 -38 107 -13 14 -86 50 -93 46 -2 0 -4 -1 -5 0 -2 0
-25 2 -53 3 -39 1 -55 -3 -71 -19z m152 -93 c18 -24 17 -46 -3 -71 -20 -23
-67 -33 -68 -14 0 6 -3 15 -7 19 -10 10 -10 27 0 20 4 -2 6 13 5 35 -2 39 -2
39 29 34 17 -3 37 -14 44 -23z"/>
<path d="M1004 1157 c-29 -16 -40 -30 -47 -56 -8 -32 18 -87 46 -96 45 -14 60
-11 92 19 31 30 35 46 20 91 -12 39 -74 62 -111 42z"/>
<path d="M1285 1162 c-20 -4 -52 -41 -47 -54 1 -5 -2 -8 -6 -8 -5 0 -9 -7 -9
-15 0 -8 4 -15 9 -15 5 0 6 -5 3 -11 -8 -12 23 -49 42 -49 7 0 13 -4 13 -9 0
-12 43 -6 69 10 32 21 43 57 28 102 -13 39 -56 59 -102 49z"/>
<path d="M1551 1158 c-64 -23 -65 -119 -1 -149 24 -12 40 -14 53 -8 9 6 17 7
17 3 0 -4 11 6 25 22 34 39 32 79 -4 113 -29 27 -54 33 -90 19z"/>
<path d="M840 917 c-11 -12 -19 -28 -18 -37 1 -8 -1 -21 -5 -27 -5 -8 -4 -13
3 -13 7 0 8 -6 2 -17 -5 -10 -6 -27 -1 -38 11 -29 11 -37 -3 -29 -7 5 -8 3 -3
-6 4 -7 8 -28 7 -46 -1 -36 19 -59 54 -59 24 -1 48 37 42 66 -3 13 4 15 59 18
34 2 83 51 88 88 2 18 0 35 -5 38 -5 3 -7 11 -5 18 2 7 -9 22 -25 35 -23 18
-45 24 -100 27 -62 3 -73 1 -90 -18z m125 -87 c0 -9 -10 -15 -26 -16 -25 -1
-27 3 -20 34 3 11 46 -6 46 -18z"/>
<path d="M1094 923 c-15 -11 -18 -30 -19 -125 -2 -121 4 -143 35 -153 37 -12
58 10 57 59 -2 51 2 51 38 -7 27 -42 75 -77 75 -54 0 6 3 7 7 4 3 -4 12 1 19
11 12 18 8 72 -6 72 -18 0 -19 34 0 57 15 19 18 34 14 62 -6 37 -40 84 -55 75
-5 -3 -9 -2 -9 3 0 14 -136 10 -156 -4z m124 -85 c-6 -18 -48 -21 -48 -3 0 9
10 15 26 15 15 0 24 -5 22 -12z"/>
<path d="M1351 922 c-19 -13 -21 -24 -21 -123 0 -130 9 -158 51 -153 21 3 28
0 23 -8 -5 -7 -3 -8 7 -2 8 5 33 9 56 9 49 1 52 3 59 38 5 31 -18 47 -65 47
-17 0 -31 5 -31 10 0 6 15 10 34 10 47 0 74 34 49 62 -9 10 -30 18 -50 18 -18
0 -33 5 -33 10 0 6 14 10 31 10 17 0 39 5 49 10 17 9 23 2 51 -57 17 -38 32
-74 32 -80 0 -7 4 -13 8 -13 4 0 10 -11 13 -25 8 -31 46 -51 71 -37 24 13 116
220 113 252 -2 17 -12 28 -30 34 -36 12 -58 -12 -83 -89 -9 -31 -19 -54 -21
-52 -2 1 -14 32 -28 68 -28 75 -60 97 -95 64 -17 -15 -22 -15 -26 -3 -8 19
-135 19 -164 0z"/>
<path d="M31 784 c-73 -69 27 -188 106 -126 49 38 46 110 -7 137 -38 20 -70
16 -99 -11z"/>
<path d="M319 795 c-28 -15 -48 -50 -43 -78 4 -28 33 -67 49 -67 8 0 15 -4 15
-9 0 -5 16 -4 36 2 36 11 68 47 69 76 1 30 -26 72 -51 81 -33 13 -44 12 -75
-5z"/>
<path d="M599 803 c-20 -5 -49 -55 -49 -86 0 -78 126 -102 159 -31 18 40 13
64 -20 95 -29 27 -52 33 -90 22z"/>
</g>
</svg>
